<?xml version="1.0" encoding="utf-8"?>
<!-- Generator: Adobe Illustrator 25.4.1, SVG Export Plug-In . SVG Version: 6.00 Build 0)  -->
<svg version="1.1" id="Layer_1" xmlns="http://www.w3.org/2000/svg" xmlns:xlink="http://www.w3.org/1999/xlink" x="0px" y="0px"
	 viewBox="0 0 1200 630" style="enable-background:new 0 0 1200 630;" xml:space="preserve">
<style type="text/css">
	.st0{fill:#6B3092;}
	.st1{fill:#EAE2EF;}
	.st2{fill:#FBFAFC;}
</style>
<path class="st0" d="M776,311c0,44.3-0.3,88.6,0.2,132.9c0.1,11.4-12.8,24.1-24.2,24c-88.8-0.4-177.6-0.4-266.4,0
	c-11.3,0.1-24.2-12.6-24.1-24c0.4-89,0.4-177.9,0-266.9c0-11.2,12.8-23.8,23.9-23.8c89,0.4,178,0.4,266.9,0
	c11.1,0,24,12.5,23.9,23.8C775.7,221.7,776,266.4,776,311z M467.5,308.1C467.6,308.1,467.6,308.1,467.5,308.1
	c0.1,45,0.1,90,0.1,134.9c0,12.9,5.9,18.8,18.9,18.8c88.8,0,177.6,0,266.4,0c10,0,17.1-6.8,17.1-16.8c0-89.6,0-179.2,0-268.9
	c0-10.2-6.6-16.8-16.9-16.8c-89.5,0-178.9,0-268.4-0.1c-2.5,0-4.9,0.4-7.3,1.1c-4.2,1.2-9.9,7.3-9.9,10.2
	C467.5,216.5,467.5,262.3,467.5,308.1z"/>
<path class="st1" d="M467.5,308.1c0-45.8,0-91.6,0-137.4c0-3,5.7-9.1,9.9-10.2c2.4-0.7,4.8-1.1,7.3-1.1c89.5,0.1,178.9,0,268.4,0.1
	c10.3,0,16.9,6.5,16.9,16.8c0,89.6,0,179.2,0,268.9c0,10-7.1,16.8-17.1,16.8c-88.8,0-177.6,0-266.4,0c-13,0-18.9-5.9-18.9-18.8
	C467.6,398.1,467.6,353.1,467.5,308.1C467.6,308.1,467.6,308.1,467.5,308.1z M619,165c-44.7,0-89.3,0-134,0c-8,0-11.9,3.8-11.9,11.9
	c0,89.1,0,178.3,0,267.4c0,8.2,4,12.1,12.3,12.1c88.8,0,177.6,0,266.4,0c9,0,12.6-3.7,12.6-12.7c0-88.6,0-177.3,0-265.9
	c0-9.1-3.6-12.8-12.5-12.8C707.7,165,663.3,165,619,165z"/>
<path class="st0" d="M619,165c44.3,0,88.6,0,133,0c8.9,0,12.5,3.6,12.5,12.8c0,88.6,0,177.3,0,265.9c0,9-3.7,12.7-12.6,12.7
	c-88.8,0-177.6,0-266.4,0c-8.3,0-12.3-3.9-12.3-12.1c0-89.1,0-178.3,0-267.4c0-8,3.9-11.9,11.9-11.9C529.7,165,574.4,165,619,165z
	 M590.2,346.3c0,0-0.1,0-0.1,0c0,21.9,0,43.8,0,65.7c0,2.9,0.3,4.6,3.9,4.6c23.2-0.1,46.5,0.1,69.7-0.1c14.2-0.1,27.3-4.4,38.5-13.1
	c23.2-18.1,30.1-42.5,25.8-70.6c-4.8-31.7-29.8-54.2-61.3-56.2c-3.8-0.2-5,0.7-4.9,4.5c0.2,4.7-0.5,9.4-2.1,13.7
	c-1.7,4.4-0.7,5.5,4,6c14.6,1.6,26.6,7.6,33,21.7c0.9,2.1,1.5,4.3,2.1,6.5c4.3,15.2,3.8,30.2-3.5,44.3
	c-7.2,13.9-20.3,18.8-35.1,19.5c-12.6,0.6-25.2,0.1-37.8,0.4c-4.1,0.1-4.9-1.3-4.9-5.1c0.2-27.1,0.1-54.1,0-81.2
	c0-4.2,0.3-8.1,2.3-12c2.4-4.6,3-9.8,3.4-14.9c0.2-2.6-0.6-3.5-3.3-3.4c-8.3,0.1-16.6,0.3-24.9-0.1c-4.1-0.2-4.9,1.3-4.9,5.1
	C590.3,303.1,590.2,324.7,590.2,346.3z M518.1,273.8C518.1,273.8,518,273.8,518.1,273.8c-0.1,22.2,0,44.5-0.1,66.7
	c0,2.9,1,3.9,3.7,3.8c19.9,0,39.8-0.1,59.8,0c2.9,0,3.7-1.1,3.6-3.9c-0.2-5.1-0.3-10.3,0-15.4c0.2-3.4-0.8-4.6-4.4-4.6
	c-10.6,0.2-21.2,0.1-31.9,0.1c-2.3,0-3.8-0.2-3.8-3.1c0.1-28.9,0.1-57.8,0-86.6c0-2.4,0.8-3.3,3.1-3.1c15.8,1,31.6-1,47.5,1.7
	c19.1,3.2,28.2,14.5,31.6,30.3c3,13.5,2.3,27.1-3.8,39.9c-0.5,1-0.7,2.2-0.7,3.3c-0.1,9.6,0,19.3-0.1,28.9c0,3,0.6,3.6,3.3,1.9
	c6.9-4.5,12.9-9.9,17.6-16.7c11.7-16.8,14.9-35.2,12.1-55.3c-4.6-32.8-30.6-56.9-63.5-57.5c-23.2-0.4-46.5,0-69.7-0.2
	c-3.4,0-4.5,0.8-4.5,4.4C518.2,230.3,518.1,252.1,518.1,273.8z M551.6,349.2C551.6,349.2,551.6,349.1,551.6,349.2
	c-9.6-0.1-19.3,0.2-28.9-0.2c-4.4-0.2-5.2,1.4-5.2,5.4c0.2,19.6,0.2,39.1,0.1,58.7c0,3.4,1.5,3.8,4.2,3.8c19.7-0.1,39.5-0.1,59.2,0
	c3.1,0,4.4-0.8,4.3-4.2c-0.2-19.9-0.1-39.8,0-59.7c0-3.1-0.9-4-4-3.9C571.5,349.3,561.6,349.2,551.6,349.2z"/>
<path class="st2" d="M590.2,346.3c0-21.6,0.1-43.2-0.1-64.7c0-3.8,0.8-5.2,4.9-5.1c8.3,0.3,16.6,0.2,24.9,0.1c2.7,0,3.5,0.8,3.3,3.4
	c-0.4,5.2-1,10.4-3.4,14.9c-2.1,3.9-2.4,7.8-2.3,12c0.1,27.1,0.1,54.1,0,81.2c0,3.8,0.8,5.2,4.9,5.1c12.6-0.3,25.3,0.2,37.8-0.4
	c14.7-0.7,27.9-5.6,35.1-19.5c7.3-14,7.8-29.1,3.5-44.3c-0.6-2.2-1.2-4.4-2.1-6.5c-6.5-14.1-18.5-20.1-33-21.7c-4.6-0.5-5.6-1.5-4-6
	c1.6-4.3,2.3-9,2.1-13.7c-0.1-3.8,1.1-4.7,4.9-4.5c31.5,2,56.6,24.5,61.3,56.2c4.2,28.1-2.7,52.5-25.8,70.6
	c-11.2,8.7-24.3,13-38.5,13.1c-23.2,0.2-46.5,0-69.7,0.1c-3.7,0-3.9-1.7-3.9-4.6c0.1-21.9,0-43.8,0-65.7
	C590.1,346.3,590.2,346.3,590.2,346.3z"/>
<path class="st2" d="M518.1,273.8c0-21.7,0.1-43.5-0.1-65.2c0-3.6,1.1-4.5,4.5-4.4c23.2,0.1,46.5-0.2,69.7,0.2
	c33,0.6,59,24.7,63.5,57.5c2.8,20.1-0.4,38.6-12.1,55.3c-4.7,6.7-10.6,12.2-17.6,16.7c-2.7,1.8-3.3,1.2-3.3-1.9
	c0.1-9.6,0-19.3,0.1-28.9c0-1.1,0.2-2.3,0.7-3.3c6.1-12.9,6.8-26.4,3.8-39.9c-3.5-15.8-12.6-27.1-31.6-30.3
	c-15.9-2.7-31.7-0.7-47.5-1.7c-2.4-0.2-3.1,0.7-3.1,3.1c0.1,28.9,0.1,57.8,0,86.6c0,2.9,1.5,3.1,3.8,3.1c10.6-0.1,21.3,0.1,31.9-0.1
	c3.6-0.1,4.6,1.1,4.4,4.6c-0.3,5.1-0.2,10.3,0,15.4c0.1,2.8-0.8,3.9-3.6,3.9c-19.9-0.1-39.8-0.1-59.8,0c-2.7,0-3.7-1-3.7-3.8
	C518.1,318.3,518,296.1,518.1,273.8C518,273.8,518.1,273.8,518.1,273.8z"/>
<path class="st2" d="M551.6,349.2c10,0,19.9,0.1,29.9-0.1c3-0.1,4,0.8,4,3.9c-0.1,19.9-0.1,39.8,0,59.7c0,3.4-1.2,4.2-4.3,4.2
	c-19.7-0.1-39.5-0.1-59.2,0c-2.7,0-4.3-0.4-4.2-3.8c0.1-19.6,0.1-39.2-0.1-58.7c0-3.9,0.8-5.5,5.2-5.4
	C532.4,349.4,542,349.1,551.6,349.2C551.6,349.1,551.6,349.2,551.6,349.2z M546.3,352.1c-7.5,0-14.9,0.1-22.4-0.1
	c-2.7-0.1-3.4,0.8-3.4,3.4c0.1,14.9,0.1,29.8-0.1,44.8c0,3,1.2,3.7,3.9,3.6c6.3-0.3,12.6-0.5,18.7-2.1c12-3.2,21.2-10.1,25.2-21.9
	c2.7-7.8,4.7-15.9,4-24.4c-0.2-2.6-1-3.4-3.6-3.3C561.2,352.3,553.7,352.1,546.3,352.1z"/>
<path class="st0" d="M546.3,352.1c7.5,0,14.9,0.1,22.4-0.1c2.6-0.1,3.4,0.7,3.6,3.3c0.7,8.5-1.4,16.7-4,24.4
	c-4.1,11.8-13.2,18.7-25.2,21.9c-6.1,1.6-12.4,1.8-18.7,2.1c-2.7,0.1-3.9-0.6-3.9-3.6c0.1-14.9,0.1-29.8,0.1-44.8
	c0-2.6,0.7-3.4,3.4-3.4C531.3,352.3,538.8,352.1,546.3,352.1z"/>
</svg>
